<svg class="${spin}" width="18" height="18" viewBox="0 0 18 18" fill="none" xmlns="http://www.w3.org/2000/svg">
  <style>
    @keyframes on {
      0% {
        opacity: 0;
      }
      100% {
        opacity: 1;
      }
    }
    @keyframes off {
      0% {
        opacity: 1;
      }
      100% {
        opacity: 0;
      }
    }
    @keyframes rotate-start {
      0% {
        transform: rotate(0deg);
      }
      100% {
        transform: rotate(360deg);
      }
    }
    
    @keyframes rotate-constant {
      0% {
        transform: rotate(0deg);
      }
      100% {
        transform: rotate(720deg);
      }
    }
    @keyframes stop {
      0% {
        transform: rotate(360deg);
      }
      100% {
        transform: rotate(0deg);
      }
    }
    .spinning {
      animation: rotate-start 1.5s ease-in forwards, rotate-constant 1.5s linear 1.5s infinite;
      transform-origin: center;
    }
    .stoped {
      animation: stop 1.5s ease;
      transform-origin: center;
    }
    .on {
      animation: on 2s linear;
      transform-origin: center;
      opacity: 1;
    }
    .off{
      animation: off 2s linear;
      transform-origin: center;
      opacity: 0;
    }
  </style>
  <path fill-rule="evenodd" clip-rule="evenodd" d="M10.1139 5.00422C10.2199 2.59938 9.56463 0 8.14797 0C5.51193 0 3.375 2.01472 3.375 4.5C3.375 5.85006 4.00559 7.06126 5.00422 7.88607C2.59938 7.78005 0 8.43537 0 9.85203C0 12.4881 2.01472 14.625 4.5 14.625C5.85006 14.625 7.06126 13.9944 7.88607 12.9958C7.78005 15.4006 8.43537 18 9.85203 18C12.4881 18 14.625 15.9853 14.625 13.5C14.625 12.1499 13.9944 10.9387 12.9958 10.1139C15.4006 10.2199 18 9.56463 18 8.14797C18 5.51193 15.9853 3.375 13.5 3.375C12.1499 3.375 10.9387 4.00559 10.1139 5.00422ZM9.07464 8.54871C8.91706 8.72169 8.74175 8.85056 8.54871 8.92536C8.72169 9.08294 8.85055 9.25825 8.92536 9.45129C9.08294 9.2783 9.25825 9.14944 9.45129 9.07464C9.2783 8.91706 9.14945 8.74175 9.07464 8.54871Z" fill="white"/>
  <rect x="8" y="8" width="2" height="2" rx="1" fill="#C4C4C4"/>
  <path class="${state}" fill-rule="evenodd" clip-rule="evenodd" d="M10.1139 5.00422C10.2199 2.59938 9.56463 0 8.14797 0C5.51193 0 3.375 2.01472 3.375 4.5C3.375 5.85006 4.00559 7.06126 5.00422 7.88607C2.59938 7.78005 0 8.43537 0 9.85203C0 12.4881 2.01472 14.625 4.5 14.625C5.85006 14.625 7.06126 13.9944 7.88607 12.9958C7.78005 15.4006 8.43537 18 9.85203 18C12.4881 18 14.625 15.9853 14.625 13.5C14.625 12.1499 13.9944 10.9387 12.9958 10.1139C15.4006 10.2199 18 9.56463 18 8.14797C18 5.51193 15.9853 3.375 13.5 3.375C12.1499 3.375 10.9387 4.00559 10.1139 5.00422ZM9.07464 8.54871C8.91706 8.72169 8.74175 8.85056 8.54871 8.92536C8.72169 9.08294 8.85055 9.25825 8.92536 9.45129C9.08294 9.2783 9.25825 9.14944 9.45129 9.07464C9.2783 8.91706 9.14945 8.74175 9.07464 8.54871Z" fill="url(#paint0_linear_2484_32)"/>
  <rect class="${state}" x="8" y="8" width="2" height="2" rx="1" fill="#4F4F4F"/>
  <defs>
    <linearGradient id="paint0_linear_2484_32" x1="0" y1="0" x2="18" y2="18" gradientUnits="userSpaceOnUse">
    <stop stop-color="#B0CFFD"/>
    <stop offset="1" stop-color="#F5F5F5"/>
  </linearGradient>
  </defs>
</svg>