<svg class="${detect}" xmlns="http://www.w3.org/2000/svg" width="18" height="20" viewBox="0 0 18 20" fill="none">
  <style>
    @keyframes detected {
      0% {
        transform: scale(0.85);
      }
      10% {
        transform: scale(1.1);
      }
      20% {
        transform: scale(0.95);
      }
      30% {
        transform: scale(1.03);
      }
      40% {
        transform: scale(0.97);
      }
      50% {
        transform: scale(1);
      }
      60% {
        transform: scale(0.85);
      }
      70% {
        transform: scale(1.1);
      }
      80% {
        transform: scale(0.95);
      }
      90% {
        transform: scale(1.03);
      }
      100% {
        transform: scale(1);
      }
    }
    @keyframes detecting {
      0% {
        opacity: 0;
      }
      100% {
        opacity: 1;
      }
    }
    @keyframes waiting {
      0% {
        opacity: 1;
      }
      100% {
        opacity: 0;
      }
    }
    .detecting {
      animation: detecting 2s linear;
      opacity: 1;
    }
    .waiting {
      animation: waiting 2s linear;
      opacity: 0;
    }
    .detected {
      animation: detected 1s infinite;
    }
  </style>
  <path d="M13 3H5C3.34315 3 2 4.34315 2 6V14C2 15.6569 3.34315 17 5 17H13C14.6569 17 16 15.6569 16 14V6C16 4.34315 14.6569 3 13 3Z" fill="white"/>
  <path d="M10 10C10 9.44772 9.55228 9 9 9C8.44772 9 8 9.44772 8 10C8 10.5523 8.44772 11 9 11C9.55228 11 10 10.5523 10 10Z" fill="url(#paint0_linear_2553_43)"/>
  <path class="${state}" d="M10 10C10 9.44772 9.55228 9 9 9C8.44772 9 8 9.44772 8 10C8 10.5523 8.44772 11 9 11C9.55228 11 10 10.5523 10 10Z" fill="#4F4F4F"/>
  <path class="${state}" d="M0.646216 4.12287C0.857869 2.85295 1.85301 1.85781 3.12293 1.64615L3.40633 1.59892C3.7171 1.54712 4.00003 1.78679 4.00003 2.10187C4.00003 2.33583 3.8408 2.53978 3.6138 2.59652L3.5091 2.6227C2.58024 2.85492 1.85498 3.58018 1.62277 4.50904L1.59659 4.61374C1.53984 4.84074 1.3359 4.99997 1.10193 4.99997C0.786852 4.99997 0.547186 4.71704 0.598982 4.40627L0.646216 4.12287Z" fill="url(#paint1_linear_2553_43)"/>
  <path class="${state}" d="M17.3538 15.8771C17.1422 17.147 16.147 18.1422 14.8771 18.3538L14.5937 18.401C14.2829 18.4528 14 18.2132 14 17.8981C14 17.6641 14.1592 17.4602 14.3862 17.4034L14.4909 17.3773C15.4198 17.1451 16.1451 16.4198 16.3773 15.4909L16.4034 15.3862C16.4602 15.1592 16.6641 15 16.8981 15C17.2132 15 17.4528 15.2829 17.401 15.5937L17.3538 15.8771Z" fill="url(#paint2_linear_2553_43)"/>
  <defs>
    <linearGradient id="paint0_linear_2553_43" x1="9" y1="9" x2="9.17343" y2="11.4281" gradientUnits="userSpaceOnUse">
      <stop stop-color="#BF81E4"/>
      <stop offset="1" stop-color="#BF81E4" stop-opacity="0"/>
    </linearGradient>
    <linearGradient id="paint1_linear_2553_43" x1="5.00003" y1="-1.00003" x2="-0.499968" y2="6.49997" gradientUnits="userSpaceOnUse">
      <stop stop-color="#BF81E4"/>
      <stop offset="1" stop-color="#BF81E4" stop-opacity="0"/>
    </linearGradient>
    <linearGradient id="paint2_linear_2553_43" x1="13" y1="21" x2="18.5" y2="13.5" gradientUnits="userSpaceOnUse">
      <stop stop-color="#BF81E4"/>
      <stop offset="1" stop-color="#BF81E4" stop-opacity="0"/>
    </linearGradient>
  </defs>
</svg>