<svg width="14" height="14" viewBox="0 0 14 14" fill="none" xmlns="http://www.w3.org/2000/svg">
  <style>
    @keyframes on {
      0% {
        opacity: 0;
      }
      100% {
        opacity: 1;
      }
    }
    @keyframes off {
      0% {
        opacity: 1;
      }
      100% {
        opacity: 0;
      }
    }
    .on {
      animation: on 2s linear;
      transform-origin: center;
      opacity: 1;
    }
    .off {
      animation: off 2s linear;
      transform-origin: center;
      opacity: 0;
    }
  </style>
  <g clip-path="url(#clip0_2428_306)">
    <rect width="14" height="14" rx="3" fill="white"/>
    <path fill-rule="evenodd" clip-rule="evenodd" d="M4.75 7.75C5.16421 7.75 5.5 7.41421 5.5 7C5.5 6.58579 5.16421 6.25 4.75 6.25C4.33579 6.25 4 6.58579 4 7C4 7.41421 4.33579 7.75 4.75 7.75ZM9.25 7.75C9.66421 7.75 10 7.41421 10 7C10 6.58579 9.66421 6.25 9.25 6.25C8.83579 6.25 8.5 6.58579 8.5 7C8.5 7.41421 8.83579 7.75 9.25 7.75Z" fill="#CECECE"/>
    <rect x="6" y="10" width="2" height="1" rx="0.5" fill="#CECECE"/>
    <path class=${state} fill-rule="evenodd" clip-rule="evenodd" d="M4.75 7.75C5.16421 7.75 5.5 7.41421 5.5 7C5.5 6.58579 5.16421 6.25 4.75 6.25C4.33579 6.25 4 6.58579 4 7C4 7.41421 4.33579 7.75 4.75 7.75ZM9.25 7.75C9.66421 7.75 10 7.41421 10 7C10 6.58579 9.66421 6.25 9.25 6.25C8.83579 6.25 8.5 6.58579 8.5 7C8.5 7.41421 8.83579 7.75 9.25 7.75Z" fill="url(#paint0_linear_2428_306)"/>
    <rect class=${state} x="6" y="10" width="2" height="1" rx="0.5" fill="#FF8888"/>
  </g>
  <defs>
    <linearGradient id="paint0_linear_2428_306" x1="6.5" y1="6" x2="8.5" y2="13" gradientUnits="userSpaceOnUse">
      <stop stop-color="#FF8888"/>
      <stop offset="1" stop-color="#FF8888" stop-opacity="0"/>
    </linearGradient>
    <clipPath id="clip0_2428_306">
    <rect width="14" height="14" fill="white"/>
    </clipPath>
  </defs>
</svg>
